<svg width="204" height="68" viewBox="0 0 204 68" fill="none" xmlns="http://www.w3.org/2000/svg">
<g clip-path="url(#clip0_2041_1737)">
<mask id="mask0_2041_1737" style="mask-type:luminance" maskUnits="userSpaceOnUse" x="3" y="-12" width="198" height="92">
<path d="M3 -12H200.558V80H3V-12Z" fill="white"/>
</mask>
<g mask="url(#mask0_2041_1737)">
<path d="M14.702 36.0075L12.1416 48.8419H14.5654L15.6923 43.2855H17.2605C21.1424 43.2855 22.5352 40.9813 22.5352 38.8505C22.5352 36.6131 20.429 36.0075 18.542 36.0075H14.702ZM18.1118 37.3649C19.5692 37.3649 19.9797 38.0541 19.9797 38.8653C19.9797 39.9725 19.632 41.9423 17.1491 41.9423H15.9643L16.8543 37.3649H18.1118Z" fill="white"/>
<path d="M149.906 36.0075L147.378 48.8419H149.771L150.884 43.2855H152.432C156.264 43.2855 157.639 40.9813 157.639 38.8505C157.639 36.6131 155.559 36.0075 153.696 36.0075H149.906ZM153.272 37.3649C154.711 37.3649 155.116 38.0541 155.116 38.8653C155.116 39.9725 154.773 41.9423 152.322 41.9423H151.152L152.03 37.3649H153.272Z" fill="white"/>
<path d="M27.4518 34.7492L26.0972 41.6339C26.9496 39.9354 28.3141 39.0437 29.4558 39.0437C31.8057 39.0437 31.2407 41.572 31.1269 42.1727L29.8048 48.8419H27.6119L28.9296 42.1727C29.0484 41.6339 29.2355 40.5589 28.4477 40.5589C27.434 40.5589 26.4024 42.5882 26.2387 42.9907C25.3567 45.0348 24.9899 46.978 24.5954 48.8419H22.4492L25.2589 34.7492H27.4518Z" fill="white"/>
<path d="M41.334 39.6835C40.4287 39.2786 39.5516 39.0439 38.5773 39.0439C34.5428 39.0439 32.4053 43.4795 32.4053 46.3156C32.4053 48.1449 33.3014 49.0403 34.525 49.0403C36.4625 49.0403 37.6116 46.8791 38.0332 46.0834L37.4676 48.8421H39.4981L41.334 39.6835ZM39.0395 40.3876C38.4591 43.0652 37.7692 44.8003 37.2768 45.7899C37.0608 46.2413 36.345 47.4841 35.4734 47.4841C34.6518 47.4841 34.6518 46.5559 34.6518 46.3156C34.6518 44.1755 36.0982 40.2514 38.2505 40.2514C38.6444 40.2514 38.917 40.3282 39.0395 40.3876Z" fill="white"/>
<path d="M46.439 39.2385L45.7404 42.7564C46.3054 41.3451 47.4914 39.0434 48.9815 39.0434L49.4124 39.1035L49.0258 41.0473C48.8326 41.025 48.7729 40.9816 48.4996 40.9816C46.8107 40.9816 45.1828 45.4408 44.6184 48.8417H42.4814L44.379 39.2385H46.439Z" fill="white"/>
<path d="M53.3759 39.2385L52.8688 41.8244C53.7655 40.1754 54.8925 39.0434 56.2847 39.0434C57.6246 39.0434 58.3238 40.0893 57.9311 41.7625C58.3859 40.9662 59.5301 39.0434 61.4338 39.0434C63.567 39.0434 63.2895 41.0473 63.0427 42.331L61.7397 48.8417H59.5455L60.8688 42.1848C61.1039 41.0473 61.0183 40.6033 60.4016 40.6033C59.3689 40.6033 58.3859 42.6573 58.2419 42.9911C57.5698 44.6228 57.1414 46.3944 56.6343 48.8417H54.5016L55.7634 42.4771C55.9148 41.6882 56.1708 40.6033 55.3399 40.6033C54.7109 40.6033 54.1281 41.2405 53.5452 42.2139C52.5924 43.7868 52.068 46.4904 51.5849 48.8417H49.4541L51.3559 39.2385H53.3759Z" fill="white"/>
<path d="M73.4108 39.6835C72.4901 39.2786 71.6241 39.0439 70.6535 39.0439C66.6122 39.0439 64.4814 43.4795 64.4814 46.3156C64.4814 48.1449 65.3727 49.0403 66.5975 49.0403C68.5301 49.0403 69.6779 46.8791 70.1032 46.0834L69.5444 48.8421H71.5693L73.4108 39.6835ZM71.1169 40.3876C70.5347 43.0652 69.8404 44.8003 69.3523 45.7899C69.1308 46.2413 68.4187 47.4841 67.5404 47.4841C66.7224 47.4841 66.7224 46.5559 66.7224 46.3156C66.7224 44.1755 68.1645 40.2514 70.323 40.2514C70.7126 40.2514 70.9797 40.3282 71.1169 40.3876Z" fill="white"/>
<path d="M81.7797 40.6109C81.5015 40.5038 81.0983 40.3279 80.5905 40.3279C78.4136 40.3279 76.7678 43.7474 76.7678 46.0435C76.7678 47.2826 77.4054 47.6796 78.0098 47.6796C78.8093 47.6796 79.9652 46.916 80.2576 46.7327L80.8891 47.8065C79.8963 48.3824 78.7109 49.04 77.2737 49.04C75.527 49.04 74.4111 47.8331 74.4111 45.9296C74.4111 43.1709 76.6712 39.0436 80.3567 39.0436C81.0362 39.0436 81.6313 39.1799 82.2437 39.4511L81.7797 40.6109Z" fill="white"/>
<path d="M175.748 38.034C175.389 37.8947 174.87 37.6649 174.215 37.6649C171.409 37.6649 169.287 42.1291 169.287 45.1274C169.287 46.7455 170.11 47.2638 170.888 47.2638C171.919 47.2638 173.409 46.2668 173.786 46.0272L174.6 47.4298C173.32 48.1815 171.792 49.0398 169.94 49.0398C167.688 49.0398 166.841 47.0681 166.841 44.5831C166.841 40.981 169.163 35.9874 173.913 35.9874C174.79 35.9874 175.557 36.1658 176.346 36.52L175.748 38.034Z" fill="white"/>
<path d="M88.0861 46.6221C86.7351 47.4841 86.0433 47.6352 85.5411 47.6352C84.1962 47.6352 84.1242 46.0611 84.6486 44.1978C86.9634 44.0269 90.0421 43.3222 90.0421 40.8137C90.0421 39.995 89.5638 39.0439 88.0307 39.0439C84.8659 39.0439 82.0488 42.9544 82.0488 45.9843C82.0488 48.0495 83.3481 49.0403 84.9434 49.0403C86.2027 49.0403 87.3099 48.5529 88.7255 47.6947L88.0861 46.6221ZM84.9434 43.1891C85.7374 41.1573 86.8791 40.2105 87.5955 40.2105C87.9716 40.2105 88.2602 40.431 88.2602 40.9517C88.2602 42.4769 86.4717 43.0652 84.9434 43.1891Z" fill="white"/>
<path d="M94.5298 39.2387L93.2484 45.7543C93.0607 46.7327 93.0428 47.4845 93.7358 47.4845C94.3821 47.4845 95.0542 46.6888 95.5792 45.7673C96.495 44.1976 97.033 41.6667 97.5432 39.2387H99.6777L97.7765 48.8419H95.7565L96.2808 46.1203C95.4795 47.4077 94.4824 49.04 92.7024 49.04C91.7171 49.04 90.5132 48.471 90.9779 46.1203L92.3405 39.2387H94.5298Z" fill="white"/>
<path d="M105.538 36.6855L105.035 39.2386H106.706L106.477 40.4418H104.782L103.617 46.3153C103.381 47.5439 103.58 47.6349 103.969 47.6349C104.315 47.6349 104.681 47.4993 105.095 47.3048L105.538 48.4535C105.172 48.5922 104.202 49.0028 103.092 49.0028C101.927 49.0028 101 48.3823 101.347 46.6664L102.591 40.4418H101.217L101.44 39.2386H102.953L103.463 36.6855H105.538Z" fill="white"/>
<path d="M110.996 39.2385L109.094 48.8417H106.896L108.806 39.2385H110.996ZM112.004 36.1243L110.269 37.3325L109.152 35.5558L110.885 34.3712L112.004 36.1243Z" fill="white"/>
<path d="M119.284 40.6109C119.008 40.5038 118.607 40.3279 118.1 40.3279C115.932 40.3279 114.271 43.7474 114.271 46.0435C114.271 47.2826 114.914 47.6796 115.523 47.6796C116.313 47.6796 117.477 46.916 117.774 46.7327L118.396 47.8065C117.402 48.3824 116.216 49.04 114.78 49.04C113.04 49.04 111.929 47.8331 111.929 45.9296C111.929 43.1709 114.173 39.0436 117.866 39.0436C118.549 39.0436 119.129 39.1799 119.751 39.4511L119.284 40.6109Z" fill="white"/>
<path d="M128.487 39.6835C127.572 39.2786 126.701 39.0439 125.73 39.0439C121.694 39.0439 119.559 43.4795 119.559 46.3156C119.559 48.1449 120.445 49.0403 121.676 49.0403C123.614 49.0403 124.759 46.8791 125.19 46.0834L124.626 48.8421H126.646L128.487 39.6835ZM126.195 40.3876C125.608 43.0652 124.911 44.8003 124.433 45.7899C124.219 46.2413 123.495 47.4841 122.625 47.4841C121.804 47.4841 121.804 46.5559 121.804 46.3156C121.804 44.1755 123.251 40.2514 125.397 40.2514C125.787 40.2514 126.065 40.3282 126.195 40.3876Z" fill="white"/>
<path d="M134.629 34.7492L131.828 48.8419H129.632L132.427 34.7492H134.629Z" fill="white"/>
<path d="M140.484 40.658C140.138 40.5162 139.606 40.3279 138.963 40.3279C138.055 40.3279 137.497 40.8134 137.497 41.4388C137.497 41.8469 137.686 42.1584 138.424 42.9287L138.735 43.2582C139.509 44.0911 140.234 44.88 140.234 46.0243C140.234 47.3854 139.184 49.04 136.682 49.04C135.281 49.04 134.384 48.4939 134.056 48.3205L134.629 47.1873C134.994 47.4077 135.691 47.757 136.593 47.757C137.59 47.757 138.15 47.1582 138.15 46.4145C138.15 45.8045 137.784 45.4187 137.065 44.6379L136.734 44.3016C135.651 43.1269 135.412 42.5033 135.412 41.8061C135.412 40.2914 136.869 39.0436 138.876 39.0436C139.105 39.0436 139.957 39.0436 140.976 39.4926L140.484 40.658Z" fill="white"/>
<path d="M162.577 36.0075L160.325 47.3638H164.626L164.339 48.8419H157.648L160.164 36.0075H162.577Z" fill="white"/>
<path d="M16.4047 25.214H21.4794C23.4877 25.214 24.6448 24.4827 24.6448 22.794C24.6448 21.3443 23.1553 20.7833 21.6689 20.7833H16.4047V25.214ZM16.4047 17.9899H21.2602C22.8796 17.9899 24.1764 17.4592 24.1764 16.139C24.1764 14.7785 23.0236 14.3581 21.1476 14.3581H16.4047V17.9899ZM12.4404 11.4947H22.0598C26.906 11.4947 28.1468 14.0323 28.1468 15.7439C28.1468 18.1329 26.5466 18.8036 25.7231 19.1417C28.1468 19.9071 28.7814 21.5214 28.7814 23.163C28.7814 24.4827 28.1185 25.7267 27.0722 26.5813C25.9397 27.5089 24.8651 28.0804 20.8159 28.0804H12.4404V11.4947Z" fill="white"/>
<path d="M56.8045 14.4272H46.3056V17.9172H55.9459V20.8598H46.3056V25.1499H57.279V28.0802H42.249V11.4944H56.8045V14.4272Z" fill="white"/>
<path d="M75.8428 21.7964H80.8885L78.437 15.2411H78.381L75.8428 21.7964ZM73.3673 28.0804H69.0146L76.0693 11.4947H80.8343L87.8046 28.0804H83.3116L82.0456 24.6641H74.7398L73.3673 28.0804Z" fill="white"/>
<path d="M111.88 16.9273C111.553 15.9303 110.928 14.0602 107.512 14.0602C105.524 14.0602 102.602 15.1643 102.602 19.8637C102.602 22.8472 104.009 25.5174 107.512 25.5174C109.795 25.5174 111.393 24.4387 111.88 22.4014H116.019C115.195 26.0078 112.384 28.5238 107.419 28.5238C102.159 28.5238 98.3857 25.5428 98.3857 19.8129C98.3857 14.0193 102.38 11.0575 107.474 11.0575C113.402 11.0575 115.798 14.4751 116.019 16.9273H111.88Z" fill="white"/>
<path d="M137.714 25.5936C139.937 25.5936 143.079 24.438 143.079 19.7913C143.079 15.1488 139.937 13.9914 137.714 13.9914C135.471 13.9914 132.329 15.1488 132.329 19.7913C132.329 24.438 135.471 25.5936 137.714 25.5936ZM137.714 11.0575C140.323 11.0575 147.213 12 147.213 19.7913C147.213 27.5702 140.323 28.5238 137.714 28.5238C135.094 28.5238 128.196 27.5702 128.196 19.7913C128.196 12 135.094 11.0575 137.714 11.0575Z" fill="white"/>
<path d="M172.507 11.4944H176.37V28.0802H172.234L164.161 16.2595H164.106V28.0802H160.246V11.4944H164.599L172.454 23.0495H172.507V11.4944Z" fill="white"/>
<path d="M12.7656 31.9249H176.359V30.8956H12.7656V31.9249Z" fill="white"/>
<path d="M72.6955 63.6749C72.3717 63.7839 71.9938 64.0013 71.6295 64.0013C71.4411 64.0013 71.2109 63.9598 71.2109 63.7158C71.2109 63.4037 71.8455 62.6433 72.048 62.3714C72.1692 62.2092 72.264 62.0463 72.4665 61.9918C73.0328 61.8556 73.6402 61.8426 74.2065 61.7342L78.1332 57.0367C78.6188 56.4533 80.6025 54.4303 81.3177 54.4303C81.7763 54.4303 81.9923 54.9195 81.9923 55.3127C81.9923 56.1815 80.8857 57.7699 80.4542 58.5439C80.5619 58.5575 80.6967 58.5842 80.6967 58.7334C80.6967 58.978 80.1298 59.3855 79.9415 59.5211C79.7119 59.6839 79.0238 60.227 78.7678 60.227C78.5247 60.227 78.457 60.0233 78.457 59.8195C78.457 58.8015 79.6172 57.3221 80.2646 56.589C80.373 56.4663 80.3865 56.3307 80.2923 56.3307C80.1163 56.3307 79.5365 56.8738 78.0385 58.5978L75.3402 61.7064C77.5799 62.1411 78.7401 62.3714 80.7644 62.8606L80.0492 63.5802C79.1857 64.449 79.2393 64.4762 76.5945 63.9195C75.4079 63.6613 74.2065 63.4985 72.9921 63.5399L72.6955 63.6749Z" fill="white"/>
<path d="M86.6242 58.3945C86.6242 57.8378 87.2717 57.3486 87.7979 57.3486C88.041 57.3486 88.2429 57.5257 88.2429 57.7697C88.2429 58.3128 87.7437 58.9784 87.1633 58.9784C86.8402 58.9784 86.6242 58.7202 86.6242 58.3945ZM87.9198 62.1681C87.3123 62.915 86.125 64.1367 85.0996 64.1367C84.3038 64.1367 83.9395 63.2134 83.9395 62.5211C83.9395 60.8653 85.6259 59.249 86.4352 59.249C86.6642 59.249 87.0292 59.3308 87.0292 59.6299C87.0292 60.3086 85.693 61.5167 85.1261 61.9099C85.0184 62.4672 85.2209 62.7657 85.8413 62.7657C86.5565 62.7657 87.2587 62.0462 87.7979 61.6523L87.9198 62.1681Z" fill="white"/>
<path d="M94.1685 61.9647L94.1414 61.9375C93.6558 62.4805 92.2389 63.7159 91.4967 63.7159C90.7409 63.7159 90.4848 62.7245 90.4848 62.1276C90.4848 60.3491 93.4262 58.9106 94.4651 58.8146C94.6541 58.8016 95.1803 58.8561 95.1803 59.1546C95.1803 59.3986 94.9107 59.5887 94.7353 59.7113L93.1972 60.5528C92.3473 61.0142 91.3483 61.3944 91.4702 62.3858C91.4837 62.4942 91.5644 62.5208 91.6862 62.5208C92.0635 62.5617 92.8864 62.2366 93.3991 61.6799L94.843 60.0779C94.9778 59.9287 95.1403 59.6977 95.3563 59.6977C95.6253 59.6977 95.869 60.159 95.869 60.39C95.869 60.5937 95.6795 60.9058 95.5853 61.0823L94.5735 62.9828L94.6005 63.01L96.6513 61.53L96.719 62.1003L93.8718 64.2454C92.455 66.5124 91.2677 67.3812 90.7409 67.3812C90.5525 67.3812 90.4307 67.232 90.4307 67.0555C90.4307 66.0783 92.4821 64.3674 93.2243 63.8243L94.1685 61.9647Z" fill="white"/>
<path d="M100.095 62.2224C100.756 61.6929 103.212 59.5213 103.953 59.5213C104.278 59.5213 104.601 59.8606 104.601 60.1727C104.601 60.4309 104.062 61.0279 103.9 61.218C103.063 62.2366 103.104 62.2769 103.104 62.4125C103.104 62.589 103.238 62.698 103.4 62.698C103.845 62.698 104.831 61.9648 105.222 61.7066L105.289 62.2633C104.668 62.7388 103.036 64.069 102.294 64.069C101.889 64.069 101.673 63.716 101.673 63.3494C101.673 62.4942 102.605 61.4626 103.09 60.8241L103.063 60.7975C100.756 62.3859 100.081 63.8244 99.6498 63.8244C99.1771 63.8244 99.1094 62.7655 99.1094 62.4534C99.1094 61.5171 99.4608 60.865 99.9329 60.0916C101.525 57.4437 104.21 55.0683 104.668 55.0683C104.884 55.0683 105.249 55.1637 105.249 55.4349C105.249 56.3576 100.958 60.8378 100.095 61.6929V62.2224Z" fill="white"/>
<path d="M112.592 58.272C111.958 59.5619 111.85 60.0641 110.366 59.9687C109.907 60.5663 109.138 61.6797 109.138 62.494C109.138 62.7925 109.232 62.969 109.543 62.969C109.975 62.969 110.46 62.5615 111.863 61.5571L111.931 62.154C111.135 62.8878 109.678 64.34 108.531 64.34C108.004 64.34 107.681 63.974 107.681 63.4303C107.681 62.9826 107.856 62.4668 108.032 62.0729L108.004 62.0457L107.316 62.6024L107.168 62.0865C107.978 61.4623 108.72 60.7694 109.219 59.9142C108.396 59.9142 108.652 59.8604 107.937 59.9687L108.086 59.7248C108.814 58.5296 108.922 58.3123 110.366 58.2584C110.771 57.7017 111.068 57.0639 111.85 57.0639C112.025 57.0639 112.282 57.1047 112.282 57.3221C112.282 57.5661 111.891 58.0138 111.756 58.2039L112.592 58.272Z" fill="white"/>
<path d="M123.457 63.5664C123.025 63.593 122.81 63.58 122.486 63.4574C122.135 64.055 121.919 64.5436 121.865 64.9919C121.811 65.4266 121.933 65.8062 122.135 66.2C122.972 65.6433 123.578 64.5844 123.457 63.5664ZM123.511 61.5848C123.903 61.8152 124.038 62.2629 124.213 62.6567L126.034 61.5167L126.183 62.0189C125.643 62.5075 125.104 62.9824 124.443 63.3082C124.496 63.5664 124.47 63.8104 124.456 64.055C124.348 65.6706 122.459 67.1642 121.474 67.3134C120.853 67.4082 120.678 66.1462 120.678 65.6972C120.678 64.8154 121.258 63.7429 121.622 62.9694C121.406 62.7385 121.231 62.5347 121.231 62.1954C121.231 61.6517 121.595 61.5025 121.987 61.2857C122.783 60.851 123.215 60.2132 123.633 59.4398C123.983 58.7741 125.724 55.5429 126.413 55.5429C126.709 55.5429 126.736 55.9231 126.736 56.1404C126.736 56.6699 126.331 57.6204 126.034 58.0415L123.511 61.5848Z" fill="white"/>
<path d="M130.111 61.2584C129.815 61.5569 129.559 62.0863 129.559 62.5074C129.559 62.9013 129.815 63.0233 130.152 63.0233C130.597 63.0233 130.881 62.7656 131.191 62.4802C131.097 62.2628 131.029 62.0863 131.029 61.8554C131.029 61.15 131.664 60.2949 131.609 60.267C131.151 60.5389 130.516 60.8652 130.111 61.2584ZM134.226 61.8969C133.619 62.6703 133.026 62.996 132.041 62.996C131.474 63.5799 130.813 64.014 129.963 64.014C129.262 64.014 128.613 63.3081 128.56 62.0727C128.533 61.0547 129.032 60.376 129.788 59.7927C130.516 59.1951 131.487 58.8285 132.311 58.7876C132.608 58.774 133.053 58.9102 133.053 59.2768C133.053 59.48 132.891 59.5617 132.742 59.6428C133.147 59.7512 133.229 60.0366 133.229 60.4441C133.229 61.0411 132.958 61.5166 132.702 62.0461C133.296 62.1545 133.674 61.6386 134.092 61.3265L134.226 61.8969Z" fill="white"/>
<path d="M137.71 60.987C137.238 61.7338 136.671 62.0862 136.091 62.6707L136.037 62.0732C136.388 61.7877 136.671 61.449 136.927 61.0824C136.644 61.0551 136.563 60.9468 136.563 60.6613C136.563 59.6835 137.94 58.7064 138.263 58.7064C138.398 58.7064 138.506 58.8147 138.506 58.9373C138.506 59.073 138.466 59.1956 138.412 59.3169C139.68 59.1411 140.422 58.9782 140.557 59.1411C140.76 59.3987 140.854 59.616 140.881 59.8606C140.881 60.2817 140.625 60.4848 140.314 60.743C139.923 61.0824 139.262 61.7475 139.262 62.2899C139.262 62.5073 139.478 62.6707 139.68 62.6707C140.261 62.6707 141.11 61.7877 141.555 61.449L141.65 61.9512C141.138 62.5351 139.585 64.0417 138.816 64.0417C138.25 64.0417 137.899 63.5123 137.899 62.9965C137.899 62.0732 138.601 61.3536 139.14 60.7016L139.113 60.6749L137.71 60.987Z" fill="white"/>
<path d="M152.948 60.1048C153.906 59.2088 154.743 57.9059 154.985 57.1319C154.324 57.4576 153.555 58.6793 152.921 60.0776L152.948 60.1048ZM155.741 61.9242C154.999 62.6976 153.731 64.0692 152.57 64.0692C151.585 64.0692 151.369 63.1051 151.369 62.3044C151.369 60.8789 151.976 59.345 152.854 58.2589C154.041 56.7789 155.322 55.5162 155.754 55.5162C155.984 55.5162 156.038 55.842 156.025 56.0191C155.93 57.3083 155.579 58.5029 152.651 61.3538C152.529 61.5848 152.489 61.965 152.556 62.2901C152.678 62.6028 152.867 62.8741 153.232 62.8741C153.973 62.8741 155.013 62.0053 155.552 61.5167L155.741 61.9242Z" fill="white"/>
<path d="M160.708 58.3945C160.708 57.8378 161.356 57.3486 161.882 57.3486C162.125 57.3486 162.327 57.5257 162.327 57.7697C162.327 58.3128 161.828 58.9784 161.247 58.9784C160.924 58.9784 160.708 58.7202 160.708 58.3945ZM162.004 62.1681C161.396 62.915 160.209 64.1367 159.184 64.1367C158.388 64.1367 158.023 63.2134 158.023 62.5211C158.023 60.8653 159.71 59.249 160.519 59.249C160.748 59.249 161.113 59.3308 161.113 59.6299C161.113 60.3086 159.777 61.5167 159.21 61.9099C159.103 62.4672 159.305 62.7657 159.925 62.7657C160.64 62.7657 161.343 62.0462 161.882 61.6523L162.004 62.1681Z" fill="white"/>
<path d="M166.27 63.5664C165.838 63.593 165.622 63.58 165.298 63.4574C164.947 64.055 164.731 64.5436 164.677 64.9919C164.623 65.4266 164.745 65.8062 164.947 66.2C165.784 65.6433 166.391 64.5844 166.27 63.5664ZM166.323 61.5848C166.715 61.8152 166.85 62.2629 167.025 62.6567L168.847 61.5167L168.995 62.0189C168.455 62.5075 167.916 62.9824 167.255 63.3082C167.309 63.5664 167.282 63.8104 167.268 64.055C167.16 65.6706 165.271 67.1642 164.286 67.3134C163.665 67.4082 163.49 66.1462 163.49 65.6972C163.49 64.8154 164.07 63.7429 164.434 62.9694C164.218 62.7385 164.044 62.5347 164.044 62.1954C164.044 61.6517 164.408 61.5025 164.799 61.2857C165.595 60.851 166.027 60.2132 166.445 59.4398C166.796 58.7741 168.537 55.5429 169.225 55.5429C169.521 55.5429 169.548 55.9231 169.548 56.1404C169.548 56.6699 169.143 57.6204 168.847 58.0415L166.323 61.5848Z" fill="white"/>
<path d="M174.866 59.7244C174.866 59.6297 174.799 59.5479 174.705 59.5752C174.03 59.7517 173.248 60.4031 172.883 61.2992C174.071 60.8917 174.881 59.9554 174.866 59.7244ZM176.54 61.9097C175.716 62.8739 174.232 64.1501 172.897 64.1501C171.912 64.1501 171.453 63.2677 171.426 62.3717C171.372 60.5932 173.328 58.7745 175.082 58.7875C175.514 58.7875 176.054 58.8959 176.054 59.4396C176.054 60.1046 175.393 61.1091 172.802 61.9642L172.775 62.2627C172.735 62.7785 173.18 62.955 173.611 62.955C174.57 62.955 175.703 61.9642 176.418 61.3945L176.54 61.9097Z" fill="white"/>
<path d="M186.662 3.56285C186.388 3.40866 185.948 3.33125 185.344 3.33125H184.414V5.58901H185.397C185.859 5.58901 186.204 5.54256 186.435 5.44968C186.86 5.28 187.073 4.9549 187.073 4.47499C187.073 4.02171 186.935 3.71766 186.662 3.56285ZM185.489 2.58073C186.258 2.58073 186.822 2.65566 187.18 2.80489C187.821 3.07303 188.141 3.59938 188.141 4.38272C188.141 4.93942 187.939 5.34936 187.534 5.61192C187.319 5.75125 187.019 5.85218 186.634 5.91349C187.121 5.99089 187.478 6.19462 187.704 6.52468C187.929 6.85474 188.041 7.17736 188.041 7.49193V7.9477C188.041 8.09198 188.046 8.24679 188.057 8.41213C188.067 8.57685 188.085 8.68521 188.111 8.73661L188.149 8.81402H187.127C187.121 8.79358 187.116 8.77253 187.111 8.75209C187.106 8.73166 187.101 8.70813 187.096 8.68274L187.073 8.48148V7.98609C187.073 7.26467 186.878 6.78786 186.489 6.55564C186.258 6.42189 185.853 6.35501 185.274 6.35501H184.414V8.81402H183.322V2.58073H185.489ZM182.169 2.25625C181.226 3.20988 180.755 4.36229 180.755 5.71285C180.755 7.07395 181.224 8.23379 182.161 9.19299C183.104 10.1516 184.25 10.6309 185.597 10.6309C186.945 10.6309 188.09 10.1516 189.033 9.19299C189.975 8.23379 190.447 7.07395 190.447 5.71285C190.447 4.36229 189.975 3.20988 189.033 2.25625C188.085 1.29704 186.94 0.817748 185.597 0.817748C184.26 0.817748 183.117 1.29704 182.169 2.25625ZM189.594 9.74226C188.492 10.8557 187.16 11.4124 185.597 11.4124C184.034 11.4124 182.705 10.8557 181.608 9.74226C180.516 8.63382 179.971 7.29068 179.971 5.71285C179.971 4.15051 180.522 2.81542 181.623 1.70698C182.72 0.60411 184.045 0.0517454 185.597 0.0517454C187.16 0.0517454 188.492 0.60411 189.594 1.70698C190.696 2.80985 191.247 4.14555 191.247 5.71285C191.247 7.28573 190.696 8.62824 189.594 9.74226Z" fill="white"/>
</g>
</g>
<defs>
<clipPath id="clip0_2041_1737">
<rect width="204" height="68" fill="white"/>
</clipPath>
</defs>
</svg>
